<svg width="450" height="450" viewBox="0 0 450 450" fill="none" xmlns="http://www.w3.org/2000/svg">
<path d="M365.625 225H309.375C301.918 225.007 294.769 227.973 289.496 233.246C284.223 238.519 281.257 245.668 281.25 253.125V421.875H309.375V351.562H365.625V421.875H393.75V253.125C393.743 245.668 390.777 238.519 385.504 233.246C380.231 227.973 373.082 225.007 365.625 225ZM309.375 323.438V253.125H365.625V323.438H309.375Z" fill="#F5E550"/>
<path d="M225 379.688C199.25 379.696 173.907 373.268 151.274 360.988C128.641 348.708 109.436 330.966 95.4056 309.375H168.75V281.25H56.25V393.75H84.375V341.928C101.557 362.542 123.058 379.128 147.359 390.513C171.659 401.898 198.165 407.804 225 407.812V379.688Z" fill="black"/>
<path d="M281.25 140.625H354.593C336.41 112.676 309.681 91.3517 278.39 79.8322C247.1 68.3127 212.924 67.2148 180.959 76.7022C148.994 86.1895 120.951 105.754 101.011 132.479C81.0719 159.203 70.3038 191.657 70.3125 225H42.1875C42.2014 187.414 53.7961 150.744 75.3937 119.983C96.9914 89.2208 127.543 65.8609 162.89 53.0819C198.238 40.3029 236.664 38.7255 272.94 48.5645C309.216 58.4034 341.579 79.1808 365.625 108.069V56.25H393.75V168.75H281.25V140.625Z" fill="black"/>
</svg>
