<svg width="287" height="321" viewBox="0 0 287 321" fill="none" xmlns="http://www.w3.org/2000/svg">
<path d="M268.264 15H5.73504C2.56739 15 0 17.8672 0 21.4049V76.3778C0 79.9154 2.56739 82.7826 5.73504 82.7826H22.1436C28.0291 82.7826 32.8172 88.13 32.8172 94.7021C32.8172 101.274 28.0291 106.622 22.1436 106.622H5.73504C2.56739 106.622 0 109.489 0 113.026V222.973C0 226.511 2.56739 229.378 5.73504 229.378H22.1436C28.0291 229.378 32.8172 234.725 32.8172 241.297C32.8172 247.869 28.0291 253.217 22.1436 253.217H5.73504C2.56739 253.217 0 256.084 0 259.622V314.595C0 318.133 2.56739 321 5.73504 321H136.999C140.167 321 142.734 318.133 142.734 314.595V259.622C142.734 256.084 140.167 253.217 136.999 253.217H120.591C114.706 253.217 109.918 247.869 109.918 241.297C109.918 234.724 114.705 229.378 120.591 229.378H136.999C140.167 229.378 142.734 226.511 142.734 222.973V174.405H180.489V186.325C180.489 199.96 190.422 211.053 202.632 211.053C214.843 211.053 224.776 199.96 224.776 186.325V174.405H268.265C271.433 174.405 274 171.538 274 168V21.4049C273.999 17.8672 271.431 15 268.264 15ZM131.264 216.568H120.591C108.381 216.568 98.4478 227.661 98.4478 241.297C98.4478 254.933 108.381 266.026 120.591 266.026H131.264V308.19H11.4701V266.026H22.1436C34.3535 266.026 44.2873 254.932 44.2873 241.297C44.2873 227.661 34.3542 216.568 22.1436 216.568H11.4701V174.405H54.9589C58.1266 174.405 60.694 171.538 60.694 168V149.675C60.694 143.103 65.4827 137.756 71.3682 137.756C77.2523 137.756 82.0404 143.103 82.0404 149.675V168C82.0404 171.538 84.6078 174.405 87.7755 174.405H131.265V216.568H131.264ZM136.999 106.622C133.832 106.622 131.264 109.489 131.264 113.026V161.595H93.5099V149.675C93.5099 136.04 83.5768 124.947 71.3662 124.947C59.1557 124.947 49.2226 136.04 49.2226 149.675V161.595H11.4701V119.431H22.1436C34.3535 119.431 44.2873 108.337 44.2873 94.7014C44.2873 81.0661 34.3542 69.9729 22.1436 69.9729H11.4701V27.8097H131.264V76.3778C131.264 79.9154 133.832 82.7826 136.999 82.7826H153.408C159.292 82.7826 164.08 88.13 164.08 94.7021C164.08 101.274 159.293 106.622 153.408 106.622H136.999ZM262.529 161.595H219.04C215.873 161.595 213.305 164.462 213.305 168V186.325C213.305 192.897 208.517 198.244 202.632 198.244C196.747 198.244 191.959 192.897 191.959 186.325V168C191.959 164.462 189.392 161.595 186.224 161.595H142.734V119.431H153.408C165.617 119.431 175.55 108.337 175.55 94.7014C175.55 81.0661 165.617 69.9729 153.408 69.9729H142.734V27.8097H262.529V161.595Z" fill="#F5E550"/>
<path d="M279.212 0.0424281L18.6912 1.98398C15.5478 2.00741 13.0196 4.92623 13.0437 8.50405L13.4188 64.1017C13.4429 67.6795 16.0102 70.5604 19.1537 70.537L35.4368 70.4156C41.2772 70.3721 46.0652 75.7448 46.11 82.3916C46.1549 89.0383 41.4398 94.4819 35.5994 94.5254L19.3163 94.6468C16.1729 94.6702 13.6447 97.589 13.6688 101.167L14.419 212.363C14.4431 215.941 17.0105 218.822 20.1539 218.798L36.437 218.677C42.2774 218.633 47.0654 224.006 47.1102 230.653C47.1551 237.3 42.4401 242.743 36.5996 242.787L20.3165 242.908C17.1731 242.931 14.6449 245.85 14.6691 249.428L15.0441 305.026C15.0683 308.604 17.6356 311.485 20.779 311.462L151.039 310.491C154.183 310.467 156.711 307.549 156.687 303.971L156.312 248.372C156.288 244.795 153.72 241.914 150.577 241.937L134.294 242.058C128.454 242.102 123.666 236.729 123.621 230.082C123.576 223.435 128.291 217.992 134.131 217.949L150.414 217.827C153.558 217.804 156.086 214.885 156.062 211.307L155.73 162.187L193.196 161.908L193.277 173.964C193.37 187.754 203.303 198.9 215.42 198.809C227.538 198.719 237.319 187.426 237.226 173.636L237.145 161.581L280.301 161.259C283.444 161.235 285.972 158.317 285.948 154.739L284.948 6.47765C284.923 2.89984 282.355 0.0190014 279.212 0.0424281ZM144.636 204.914L134.044 204.993C121.928 205.084 112.146 216.376 112.239 230.167C112.332 243.958 122.265 255.104 134.381 255.014L144.973 254.935L145.261 297.578L26.3828 298.464L26.0951 255.821L36.687 255.742C48.8036 255.652 58.5856 244.358 58.4926 230.567C58.3996 216.777 48.4667 205.631 36.3496 205.721L25.7577 205.8L25.47 163.158L68.6262 162.836C71.7696 162.813 74.2978 159.894 74.2737 156.316L74.1487 137.783C74.1038 131.136 78.8195 125.693 84.6599 125.65C90.499 125.606 95.287 130.978 95.3319 137.625L95.4569 156.158C95.481 159.736 98.0483 162.617 101.192 162.594L144.349 162.272L144.636 204.914L144.636 204.914ZM149.577 93.676C146.433 93.6994 143.905 96.6182 143.929 100.196L144.261 149.317L106.795 149.596L106.714 137.54C106.621 123.75 96.6878 112.604 84.5706 112.695C72.4534 112.785 62.672 124.078 62.765 137.868L62.8464 149.924L25.3826 150.203L25.0949 107.56L35.6868 107.481C47.8033 107.39 57.5854 96.0969 57.4924 82.306C57.3993 68.5158 47.4665 57.37 35.3494 57.4603L24.7574 57.5392L24.4698 14.8969L143.348 14.0109L143.679 63.1309C143.703 66.7088 146.271 69.5896 149.414 69.5662L165.697 69.4448C171.536 69.4013 176.324 74.774 176.369 81.4208C176.414 88.0676 171.7 93.5111 165.86 93.5546L149.577 93.676ZM274.521 148.346L231.365 148.668C228.222 148.691 225.694 151.61 225.718 155.188L225.843 173.721C225.888 180.368 221.173 185.811 215.332 185.854C209.493 185.898 204.705 180.526 204.66 173.879L204.535 155.346C204.511 151.768 201.943 148.887 198.8 148.91L155.643 149.232L155.355 106.589L165.947 106.51C178.063 106.42 187.845 95.1262 187.751 81.3353C187.658 67.5451 177.726 56.3992 165.61 56.4895L155.018 56.5685L154.73 13.9261L273.608 13.0401L274.521 148.346Z" fill="black"/>
</svg>
