<svg width="415" height="706" viewBox="0 0 415 706" fill="none" xmlns="http://www.w3.org/2000/svg">
<path d="M219.234 76.4594H119.413C116.301 76.4594 114.744 76.4594 113.37 77.2864C112.155 78.0175 111.048 79.2109 110.13 80.7802C109.092 82.5546 108.396 84.9836 107.004 89.8412L34.1616 344.022C30.8372 355.623 29.175 361.424 29.5743 366.138C29.9229 370.254 31.2281 373.939 33.1827 376.324C35.4212 379.056 39.1379 379.056 46.5714 379.056H154.196L102.167 681.653L313.635 299.029C320.77 286.12 324.338 279.665 324.546 274.142C324.726 269.349 323.592 264.689 321.488 261.589C319.066 258.018 313.927 258.018 303.647 258.018H180.211L219.234 76.4594Z" stroke="#F5E550" stroke-width="15" stroke-linecap="round" stroke-linejoin="round"/>
<path d="M228.974 55.335H134.996C132.065 55.335 130.6 55.335 129.307 56.1633C128.162 56.8955 127.121 58.0908 126.256 59.6625C125.278 61.4397 124.623 63.8724 123.312 68.7376L54.7338 323.314C51.604 334.934 50.0391 340.743 50.415 345.465C50.7432 349.587 51.972 353.278 53.8122 355.666C55.9197 358.403 59.4188 358.403 66.4173 358.403H167.743L118.759 661.471L317.85 278.251C324.568 265.322 327.927 258.857 328.122 253.326C328.292 248.525 327.224 243.858 325.244 240.753C322.963 237.176 318.125 237.176 308.447 237.176H192.235L228.974 55.335Z" stroke="black" stroke-width="13" stroke-linecap="round" stroke-linejoin="round"/>
</svg>
