<svg xmlns="http://www.w3.org/2000/svg" version="1.1" xmlns:xlink="http://www.w3.org/1999/xlink" xmlns:svgjs="http://svgjs.dev/svgjs" width="1440" height="560" preserveAspectRatio="none" viewBox="0 0 1440 560"><g mask="url(&quot;#SvgjsMask1010&quot;)" fill="none"><path d="M-71.73 360.47L-71.73 360.47" stroke="rgba(185, 46, 30, 1)" stroke-width="1.5"></path><path d="M-71.73 360.47L65.5 379.74" stroke="rgba(185, 46, 30, 1)" stroke-width="1.5"></path><path d="M-71.73 360.47L-60.09 549.24" stroke="rgba(185, 46, 30, 1)" stroke-width="1.5"></path><path d="M-60.09 549.24L-60.09 549.24" stroke="rgba(185, 46, 30, 1)" stroke-width="1.5"></path><path d="M-60.09 549.24L-55.78 653.03" stroke="rgba(185, 46, 30, 1)" stroke-width="1.5"></path><path d="M-60.09 549.24L100.38 500.07" stroke="rgba(185, 46, 30, 1)" stroke-width="1.5"></path><path d="M-55.78 653.03L-55.78 653.03" stroke="rgba(185, 46, 30, 1)" stroke-width="1.5"></path><path d="M65.5 379.74L65.5 379.74" stroke="rgba(185, 46, 30, 1)" stroke-width="1.5"></path><path d="M65.5 379.74L100.38 500.07" stroke="rgba(185, 46, 30, 1)" stroke-width="1.5"></path><path d="M100.38 500.07L100.38 500.07" stroke="rgba(185, 46, 30, 1)" stroke-width="1.5"></path><path d="M100.38 500.07L214.82 539.92" stroke="rgba(185, 46, 30, 1)" stroke-width="1.5"></path><path d="M93.79 705.24L93.79 705.24" stroke="rgba(185, 46, 30, 1)" stroke-width="1.5"></path><path d="M93.79 705.24L238.06 709" stroke="rgba(185, 46, 30, 1)" stroke-width="1.5"></path><path d="M93.79 705.24L-55.78 653.03" stroke="rgba(185, 46, 30, 1)" stroke-width="1.5"></path><path d="M211.06 363.55L211.06 363.55" stroke="rgba(185, 46, 30, 1)" stroke-width="1.5"></path><path d="M211.06 363.55L352.78 380.71" stroke="rgba(185, 46, 30, 1)" stroke-width="1.5"></path><path d="M211.06 363.55L65.5 379.74" stroke="rgba(185, 46, 30, 1)" stroke-width="1.5"></path><path d="M214.82 539.92L214.82 539.92" stroke="rgba(185, 46, 30, 1)" stroke-width="1.5"></path><path d="M214.82 539.92L378.74 531.92" stroke="rgba(185, 46, 30, 1)" stroke-width="1.5"></path><path d="M214.82 539.92L238.06 709" stroke="rgba(185, 46, 30, 1)" stroke-width="1.5"></path><path d="M214.82 539.92L211.06 363.55" stroke="rgba(185, 46, 30, 1)" stroke-width="1.5"></path><path d="M214.82 539.92L346.79 685.92" stroke="rgba(185, 46, 30, 1)" stroke-width="1.5"></path><path d="M238.06 709L238.06 709" stroke="rgba(185, 46, 30, 1)" stroke-width="1.5"></path><path d="M238.06 709L346.79 685.92" stroke="rgba(185, 46, 30, 1)" stroke-width="1.5"></path><path d="M352.78 380.71L352.78 380.71" stroke="rgba(185, 46, 30, 1)" stroke-width="1.5"></path><path d="M352.78 380.71L378.74 531.92" stroke="rgba(185, 46, 30, 1)" stroke-width="1.5"></path><path d="M378.74 531.92L378.74 531.92" stroke="rgba(185, 46, 30, 1)" stroke-width="1.5"></path><path d="M378.74 531.92L499.16 551.36" stroke="rgba(185, 46, 30, 1)" stroke-width="1.5"></path><path d="M346.79 685.92L346.79 685.92" stroke="rgba(185, 46, 30, 1)" stroke-width="1.5"></path><path d="M346.79 685.92L378.74 531.92" stroke="rgba(185, 46, 30, 1)" stroke-width="1.5"></path><path d="M346.79 685.92L523.17 653.9" stroke="rgba(185, 46, 30, 1)" stroke-width="1.5"></path><path d="M346.79 685.92L499.16 551.36" stroke="rgba(185, 46, 30, 1)" stroke-width="1.5"></path><path d="M509.19 345.95L509.19 345.95" stroke="rgba(185, 46, 30, 1)" stroke-width="1.5"></path><path d="M509.19 345.95L650.3 367.03" stroke="rgba(185, 46, 30, 1)" stroke-width="1.5"></path><path d="M509.19 345.95L352.78 380.71" stroke="rgba(185, 46, 30, 1)" stroke-width="1.5"></path><path d="M499.16 551.36L499.16 551.36" stroke="rgba(185, 46, 30, 1)" stroke-width="1.5"></path><path d="M499.16 551.36L523.17 653.9" stroke="rgba(185, 46, 30, 1)" stroke-width="1.5"></path><path d="M523.17 653.9L523.17 653.9" stroke="rgba(185, 46, 30, 1)" stroke-width="1.5"></path><path d="M523.17 653.9L646.31 666.66" stroke="rgba(185, 46, 30, 1)" stroke-width="1.5"></path><path d="M650.3 367.03L650.3 367.03" stroke="rgba(185, 46, 30, 1)" stroke-width="1.5"></path><path d="M664.12 524.52L664.12 524.52" stroke="rgba(185, 46, 30, 1)" stroke-width="1.5"></path><path d="M664.12 524.52L646.31 666.66" stroke="rgba(185, 46, 30, 1)" stroke-width="1.5"></path><path d="M664.12 524.52L650.3 367.03" stroke="rgba(185, 46, 30, 1)" stroke-width="1.5"></path><path d="M664.12 524.52L499.16 551.36" stroke="rgba(185, 46, 30, 1)" stroke-width="1.5"></path><path d="M646.31 666.66L646.31 666.66" stroke="rgba(185, 46, 30, 1)" stroke-width="1.5"></path><path d="M646.31 666.66L795.3 703.36" stroke="rgba(185, 46, 30, 1)" stroke-width="1.5"></path><path d="M646.31 666.66L499.16 551.36" stroke="rgba(185, 46, 30, 1)" stroke-width="1.5"></path><path d="M646.31 666.66L839.06 509.7" stroke="rgba(185, 46, 30, 1)" stroke-width="1.5"></path><path d="M646.31 666.66L378.74 531.92" stroke="rgba(185, 46, 30, 1)" stroke-width="1.5"></path><path d="M857.93 61.47L857.93 61.47" stroke="rgba(185, 46, 30, 1)" stroke-width="1.5"></path><path d="M857.93 61.47L986.4 92.03" stroke="rgba(185, 46, 30, 1)" stroke-width="1.5"></path><path d="M857.93 61.47L939.86 206.7" stroke="rgba(185, 46, 30, 1)" stroke-width="1.5"></path><path d="M857.93 61.47L794.81 253.17" stroke="rgba(185, 46, 30, 1)" stroke-width="1.5"></path><path d="M857.93 61.47L1012.37 -88.16" stroke="rgba(185, 46, 30, 1)" stroke-width="1.5"></path><path d="M857.93 61.47L1108.39 111.18" stroke="rgba(185, 46, 30, 1)" stroke-width="1.5"></path><path d="M857.93 61.47L1092.79 -77.3" stroke="rgba(185, 46, 30, 1)" stroke-width="1.5"></path><path d="M794.81 253.17L794.81 253.17" stroke="rgba(185, 46, 30, 1)" stroke-width="1.5"></path><path d="M794.81 253.17L842.36 388.6" stroke="rgba(185, 46, 30, 1)" stroke-width="1.5"></path><path d="M794.81 253.17L939.86 206.7" stroke="rgba(185, 46, 30, 1)" stroke-width="1.5"></path><path d="M794.81 253.17L650.3 367.03" stroke="rgba(185, 46, 30, 1)" stroke-width="1.5"></path><path d="M842.36 388.6L842.36 388.6" stroke="rgba(185, 46, 30, 1)" stroke-width="1.5"></path><path d="M842.36 388.6L957.18 351.44" stroke="rgba(185, 46, 30, 1)" stroke-width="1.5"></path><path d="M842.36 388.6L839.06 509.7" stroke="rgba(185, 46, 30, 1)" stroke-width="1.5"></path><path d="M839.06 509.7L839.06 509.7" stroke="rgba(185, 46, 30, 1)" stroke-width="1.5"></path><path d="M839.06 509.7L959.98 501.46" stroke="rgba(185, 46, 30, 1)" stroke-width="1.5"></path><path d="M839.06 509.7L664.12 524.52" stroke="rgba(185, 46, 30, 1)" stroke-width="1.5"></path><path d="M795.3 703.36L795.3 703.36" stroke="rgba(185, 46, 30, 1)" stroke-width="1.5"></path><path d="M795.3 703.36L983.95 696.45" stroke="rgba(185, 46, 30, 1)" stroke-width="1.5"></path><path d="M795.3 703.36L839.06 509.7" stroke="rgba(185, 46, 30, 1)" stroke-width="1.5"></path><path d="M795.3 703.36L664.12 524.52" stroke="rgba(185, 46, 30, 1)" stroke-width="1.5"></path><path d="M1012.37 -88.16L1012.37 -88.16" stroke="rgba(185, 46, 30, 1)" stroke-width="1.5"></path><path d="M1012.37 -88.16L1092.79 -77.3" stroke="rgba(185, 46, 30, 1)" stroke-width="1.5"></path><path d="M1012.37 -88.16L986.4 92.03" stroke="rgba(185, 46, 30, 1)" stroke-width="1.5"></path><path d="M986.4 92.03L986.4 92.03" stroke="rgba(185, 46, 30, 1)" stroke-width="1.5"></path><path d="M986.4 92.03L1108.39 111.18" stroke="rgba(185, 46, 30, 1)" stroke-width="1.5"></path><path d="M986.4 92.03L939.86 206.7" stroke="rgba(185, 46, 30, 1)" stroke-width="1.5"></path><path d="M939.86 206.7L939.86 206.7" stroke="rgba(185, 46, 30, 1)" stroke-width="1.5"></path><path d="M939.86 206.7L957.18 351.44" stroke="rgba(185, 46, 30, 1)" stroke-width="1.5"></path><path d="M939.86 206.7L1108.39 111.18" stroke="rgba(185, 46, 30, 1)" stroke-width="1.5"></path><path d="M939.86 206.7L842.36 388.6" stroke="rgba(185, 46, 30, 1)" stroke-width="1.5"></path><path d="M957.18 351.44L957.18 351.44" stroke="rgba(185, 46, 30, 1)" stroke-width="1.5"></path><path d="M957.18 351.44L1097.83 387.26" stroke="rgba(185, 46, 30, 1)" stroke-width="1.5"></path><path d="M959.98 501.46L959.98 501.46" stroke="rgba(185, 46, 30, 1)" stroke-width="1.5"></path><path d="M959.98 501.46L1090.96 553.55" stroke="rgba(185, 46, 30, 1)" stroke-width="1.5"></path><path d="M959.98 501.46L957.18 351.44" stroke="rgba(185, 46, 30, 1)" stroke-width="1.5"></path><path d="M959.98 501.46L842.36 388.6" stroke="rgba(185, 46, 30, 1)" stroke-width="1.5"></path><path d="M959.98 501.46L1097.83 387.26" stroke="rgba(185, 46, 30, 1)" stroke-width="1.5"></path><path d="M983.95 696.45L983.95 696.45" stroke="rgba(185, 46, 30, 1)" stroke-width="1.5"></path><path d="M983.95 696.45L1128.64 701.96" stroke="rgba(185, 46, 30, 1)" stroke-width="1.5"></path><path d="M983.95 696.45L1090.96 553.55" stroke="rgba(185, 46, 30, 1)" stroke-width="1.5"></path><path d="M1092.79 -77.3L1092.79 -77.3" stroke="rgba(185, 46, 30, 1)" stroke-width="1.5"></path><path d="M1092.79 -77.3L1278.16 -41.35" stroke="rgba(185, 46, 30, 1)" stroke-width="1.5"></path><path d="M1092.79 -77.3L1108.39 111.18" stroke="rgba(185, 46, 30, 1)" stroke-width="1.5"></path><path d="M1092.79 -77.3L986.4 92.03" stroke="rgba(185, 46, 30, 1)" stroke-width="1.5"></path><path d="M1108.39 111.18L1108.39 111.18" stroke="rgba(185, 46, 30, 1)" stroke-width="1.5"></path><path d="M1108.39 111.18L1147.23 262.06" stroke="rgba(185, 46, 30, 1)" stroke-width="1.5"></path><path d="M1108.39 111.18L1309.89 107.4" stroke="rgba(185, 46, 30, 1)" stroke-width="1.5"></path><path d="M1108.39 111.18L1012.37 -88.16" stroke="rgba(185, 46, 30, 1)" stroke-width="1.5"></path><path d="M1147.23 262.06L1147.23 262.06" stroke="rgba(185, 46, 30, 1)" stroke-width="1.5"></path><path d="M1147.23 262.06L1097.83 387.26" stroke="rgba(185, 46, 30, 1)" stroke-width="1.5"></path><path d="M1147.23 262.06L1294.54 247.09" stroke="rgba(185, 46, 30, 1)" stroke-width="1.5"></path><path d="M1097.83 387.26L1097.83 387.26" stroke="rgba(185, 46, 30, 1)" stroke-width="1.5"></path><path d="M1097.83 387.26L1090.96 553.55" stroke="rgba(185, 46, 30, 1)" stroke-width="1.5"></path><path d="M1097.83 387.26L939.86 206.7" stroke="rgba(185, 46, 30, 1)" stroke-width="1.5"></path><path d="M1090.96 553.55L1090.96 553.55" stroke="rgba(185, 46, 30, 1)" stroke-width="1.5"></path><path d="M1090.96 553.55L1128.64 701.96" stroke="rgba(185, 46, 30, 1)" stroke-width="1.5"></path><path d="M1128.64 701.96L1128.64 701.96" stroke="rgba(185, 46, 30, 1)" stroke-width="1.5"></path><path d="M1128.64 701.96L1260.17 710.15" stroke="rgba(185, 46, 30, 1)" stroke-width="1.5"></path><path d="M1128.64 701.96L959.98 501.46" stroke="rgba(185, 46, 30, 1)" stroke-width="1.5"></path><path d="M1278.16 -41.35L1278.16 -41.35" stroke="rgba(185, 46, 30, 1)" stroke-width="1.5"></path><path d="M1278.16 -41.35L1309.89 107.4" stroke="rgba(185, 46, 30, 1)" stroke-width="1.5"></path><path d="M1278.16 -41.35L1425.71 -87.67" stroke="rgba(185, 46, 30, 1)" stroke-width="1.5"></path><path d="M1309.89 107.4L1309.89 107.4" stroke="rgba(185, 46, 30, 1)" stroke-width="1.5"></path><path d="M1309.89 107.4L1294.54 247.09" stroke="rgba(185, 46, 30, 1)" stroke-width="1.5"></path><path d="M1309.89 107.4L1442.57 56.08" stroke="rgba(185, 46, 30, 1)" stroke-width="1.5"></path><path d="M1309.89 107.4L1423.56 247.05" stroke="rgba(185, 46, 30, 1)" stroke-width="1.5"></path><path d="M1294.54 247.09L1294.54 247.09" stroke="rgba(185, 46, 30, 1)" stroke-width="1.5"></path><path d="M1294.54 247.09L1423.56 247.05" stroke="rgba(185, 46, 30, 1)" stroke-width="1.5"></path><path d="M1294.54 247.09L1420.28 359.51" stroke="rgba(185, 46, 30, 1)" stroke-width="1.5"></path><path d="M1260.17 710.15L1260.17 710.15" stroke="rgba(185, 46, 30, 1)" stroke-width="1.5"></path><path d="M1260.17 710.15L1405.46 640.45" stroke="rgba(185, 46, 30, 1)" stroke-width="1.5"></path><path d="M1425.71 -87.67L1425.71 -87.67" stroke="rgba(185, 46, 30, 1)" stroke-width="1.5"></path><path d="M1425.71 -87.67L1442.57 56.08" stroke="rgba(185, 46, 30, 1)" stroke-width="1.5"></path><path d="M1442.57 56.08L1442.57 56.08" stroke="rgba(185, 46, 30, 1)" stroke-width="1.5"></path><path d="M1442.57 56.08L1565.98 108.73" stroke="rgba(185, 46, 30, 1)" stroke-width="1.5"></path><path d="M1423.56 247.05L1423.56 247.05" stroke="rgba(185, 46, 30, 1)" stroke-width="1.5"></path><path d="M1423.56 247.05L1420.28 359.51" stroke="rgba(185, 46, 30, 1)" stroke-width="1.5"></path><path d="M1423.56 247.05L1594.04 239.93" stroke="rgba(185, 46, 30, 1)" stroke-width="1.5"></path><path d="M1423.56 247.05L1442.57 56.08" stroke="rgba(185, 46, 30, 1)" stroke-width="1.5"></path><path d="M1423.56 247.05L1565.98 108.73" stroke="rgba(185, 46, 30, 1)" stroke-width="1.5"></path><path d="M1420.28 359.51L1420.28 359.51" stroke="rgba(185, 46, 30, 1)" stroke-width="1.5"></path><path d="M1405.46 640.45L1405.46 640.45" stroke="rgba(185, 46, 30, 1)" stroke-width="1.5"></path><path d="M1405.46 640.45L1544.84 702.8" stroke="rgba(185, 46, 30, 1)" stroke-width="1.5"></path><path d="M1405.46 640.45L1588.4 559.24" stroke="rgba(185, 46, 30, 1)" stroke-width="1.5"></path><path d="M1405.46 640.45L1420.28 359.51" stroke="rgba(185, 46, 30, 1)" stroke-width="1.5"></path><path d="M1588.51 -66.83L1588.51 -66.83" stroke="rgba(185, 46, 30, 1)" stroke-width="1.5"></path><path d="M1588.51 -66.83L1425.71 -87.67" stroke="rgba(185, 46, 30, 1)" stroke-width="1.5"></path><path d="M1588.51 -66.83L1565.98 108.73" stroke="rgba(185, 46, 30, 1)" stroke-width="1.5"></path><path d="M1588.51 -66.83L1442.57 56.08" stroke="rgba(185, 46, 30, 1)" stroke-width="1.5"></path><path d="M1588.51 -66.83L1594.04 239.93" stroke="rgba(185, 46, 30, 1)" stroke-width="1.5"></path><path d="M1588.51 -66.83L1278.16 -41.35" stroke="rgba(185, 46, 30, 1)" stroke-width="1.5"></path><path d="M1565.98 108.73L1565.98 108.73" stroke="rgba(185, 46, 30, 1)" stroke-width="1.5"></path><path d="M1565.98 108.73L1594.04 239.93" stroke="rgba(185, 46, 30, 1)" stroke-width="1.5"></path><path d="M1565.98 108.73L1425.71 -87.67" stroke="rgba(185, 46, 30, 1)" stroke-width="1.5"></path><path d="M1594.04 239.93L1594.04 239.93" stroke="rgba(185, 46, 30, 1)" stroke-width="1.5"></path><path d="M1594.04 239.93L1601.35 399.82" stroke="rgba(185, 46, 30, 1)" stroke-width="1.5"></path><path d="M1601.35 399.82L1601.35 399.82" stroke="rgba(185, 46, 30, 1)" stroke-width="1.5"></path><path d="M1601.35 399.82L1588.4 559.24" stroke="rgba(185, 46, 30, 1)" stroke-width="1.5"></path><path d="M1601.35 399.82L1420.28 359.51" stroke="rgba(185, 46, 30, 1)" stroke-width="1.5"></path><path d="M1601.35 399.82L1423.56 247.05" stroke="rgba(185, 46, 30, 1)" stroke-width="1.5"></path><path d="M1601.35 399.82L1565.98 108.73" stroke="rgba(185, 46, 30, 1)" stroke-width="1.5"></path><path d="M1601.35 399.82L1544.84 702.8" stroke="rgba(185, 46, 30, 1)" stroke-width="1.5"></path><path d="M1588.4 559.24L1588.4 559.24" stroke="rgba(185, 46, 30, 1)" stroke-width="1.5"></path><path d="M1588.4 559.24L1544.84 702.8" stroke="rgba(185, 46, 30, 1)" stroke-width="1.5"></path><path d="M1588.4 559.24L1420.28 359.51" stroke="rgba(185, 46, 30, 1)" stroke-width="1.5"></path><path d="M1588.4 559.24L1594.04 239.93" stroke="rgba(185, 46, 30, 1)" stroke-width="1.5"></path><path d="M1588.4 559.24L1423.56 247.05" stroke="rgba(185, 46, 30, 1)" stroke-width="1.5"></path><path d="M1544.84 702.8L1544.84 702.8" stroke="rgba(185, 46, 30, 1)" stroke-width="1.5"></path><path d="M1544.84 702.8L1260.17 710.15" stroke="rgba(185, 46, 30, 1)" stroke-width="1.5"></path><path d="M1544.84 702.8L1420.28 359.51" stroke="rgba(185, 46, 30, 1)" stroke-width="1.5"></path><path d="M1544.84 702.8L1128.64 701.96" stroke="rgba(185, 46, 30, 1)" stroke-width="1.5"></path><circle r="5" cx="-71.73" cy="360.47" fill="rgba(185, 46, 30, 1)"></circle><circle r="5" cx="-60.09" cy="549.24" fill="rgba(185, 46, 30, 1)"></circle><circle r="5" cx="-55.78" cy="653.03" fill="rgba(185, 46, 30, 1)"></circle><circle r="5" cx="65.5" cy="379.74" fill="rgba(185, 46, 30, 1)"></circle><circle r="5" cx="100.38" cy="500.07" fill="rgba(185, 46, 30, 1)"></circle><circle r="5" cx="93.79" cy="705.24" fill="rgba(185, 46, 30, 1)"></circle><circle r="5" cx="211.06" cy="363.55" fill="rgba(185, 46, 30, 1)"></circle><circle r="5" cx="214.82" cy="539.92" fill="rgba(185, 46, 30, 1)"></circle><circle r="5" cx="238.06" cy="709" fill="rgba(185, 46, 30, 1)"></circle><circle r="5" cx="352.78" cy="380.71" fill="rgba(185, 46, 30, 1)"></circle><circle r="5" cx="378.74" cy="531.92" fill="rgba(185, 46, 30, 1)"></circle><circle r="5" cx="346.79" cy="685.92" fill="rgba(185, 46, 30, 1)"></circle><circle r="5" cx="509.19" cy="345.95" fill="rgba(185, 46, 30, 1)"></circle><circle r="5" cx="499.16" cy="551.36" fill="rgba(185, 46, 30, 1)"></circle><circle r="5" cx="523.17" cy="653.9" fill="rgba(185, 46, 30, 1)"></circle><circle r="5" cx="650.3" cy="367.03" fill="rgba(185, 46, 30, 1)"></circle><circle r="5" cx="664.12" cy="524.52" fill="rgba(185, 46, 30, 1)"></circle><circle r="5" cx="646.31" cy="666.66" fill="rgba(185, 46, 30, 1)"></circle><circle r="5" cx="857.93" cy="61.47" fill="rgba(185, 46, 30, 1)"></circle><circle r="5" cx="794.81" cy="253.17" fill="rgba(185, 46, 30, 1)"></circle><circle r="5" cx="842.36" cy="388.6" fill="rgba(185, 46, 30, 1)"></circle><circle r="5" cx="839.06" cy="509.7" fill="rgba(185, 46, 30, 1)"></circle><circle r="5" cx="795.3" cy="703.36" fill="rgba(185, 46, 30, 1)"></circle><circle r="5" cx="1012.37" cy="-88.16" fill="rgba(185, 46, 30, 1)"></circle><circle r="5" cx="986.4" cy="92.03" fill="rgba(185, 46, 30, 1)"></circle><circle r="5" cx="939.86" cy="206.7" fill="rgba(185, 46, 30, 1)"></circle><circle r="5" cx="957.18" cy="351.44" fill="rgba(185, 46, 30, 1)"></circle><circle r="5" cx="959.98" cy="501.46" fill="rgba(185, 46, 30, 1)"></circle><circle r="5" cx="983.95" cy="696.45" fill="rgba(185, 46, 30, 1)"></circle><circle r="5" cx="1092.79" cy="-77.3" fill="rgba(185, 46, 30, 1)"></circle><circle r="5" cx="1108.39" cy="111.18" fill="rgba(185, 46, 30, 1)"></circle><circle r="5" cx="1147.23" cy="262.06" fill="rgba(185, 46, 30, 1)"></circle><circle r="5" cx="1097.83" cy="387.26" fill="rgba(185, 46, 30, 1)"></circle><circle r="5" cx="1090.96" cy="553.55" fill="rgba(185, 46, 30, 1)"></circle><circle r="5" cx="1128.64" cy="701.96" fill="rgba(185, 46, 30, 1)"></circle><circle r="5" cx="1278.16" cy="-41.35" fill="rgba(185, 46, 30, 1)"></circle><circle r="5" cx="1309.89" cy="107.4" fill="rgba(185, 46, 30, 1)"></circle><circle r="5" cx="1294.54" cy="247.09" fill="rgba(185, 46, 30, 1)"></circle><circle r="5" cx="1260.17" cy="710.15" fill="rgba(185, 46, 30, 1)"></circle><circle r="5" cx="1425.71" cy="-87.67" fill="rgba(185, 46, 30, 1)"></circle><circle r="5" cx="1442.57" cy="56.08" fill="rgba(185, 46, 30, 1)"></circle><circle r="5" cx="1423.56" cy="247.05" fill="rgba(185, 46, 30, 1)"></circle><circle r="5" cx="1420.28" cy="359.51" fill="rgba(185, 46, 30, 1)"></circle><circle r="5" cx="1405.46" cy="640.45" fill="rgba(185, 46, 30, 1)"></circle><circle r="5" cx="1588.51" cy="-66.83" fill="rgba(185, 46, 30, 1)"></circle><circle r="5" cx="1565.98" cy="108.73" fill="rgba(185, 46, 30, 1)"></circle><circle r="5" cx="1594.04" cy="239.93" fill="rgba(185, 46, 30, 1)"></circle><circle r="5" cx="1601.35" cy="399.82" fill="rgba(185, 46, 30, 1)"></circle><circle r="5" cx="1588.4" cy="559.24" fill="rgba(185, 46, 30, 1)"></circle><circle r="5" cx="1544.84" cy="702.8" fill="rgba(185, 46, 30, 1)"></circle><path d="M-65.53 557.81L-65.53 557.81" stroke="hsl(0, 100%, 63%)" stroke-width="1.5"></path><path d="M-65.53 557.81L-38.66 638.89" stroke="hsl(0, 100%, 63%)" stroke-width="1.5"></path><path d="M-65.53 557.81L51.56 652.04" stroke="hsl(0, 100%, 63%)" stroke-width="1.5"></path><path d="M-38.66 638.89L-38.66 638.89" stroke="hsl(0, 100%, 63%)" stroke-width="1.5"></path><path d="M-38.66 638.89L51.56 652.04" stroke="hsl(0, 100%, 63%)" stroke-width="1.5"></path><path d="M-38.66 638.89L229.87 533.02" stroke="hsl(0, 100%, 63%)" stroke-width="1.5"></path><path d="M-38.66 638.89L249.25 697.14" stroke="hsl(0, 100%, 63%)" stroke-width="1.5"></path><path d="M229.87 533.02L229.87 533.02" stroke="hsl(0, 100%, 63%)" stroke-width="1.5"></path><path d="M229.87 533.02L249.25 697.14" stroke="hsl(0, 100%, 63%)" stroke-width="1.5"></path><path d="M229.87 533.02L398.95 490.36" stroke="hsl(0, 100%, 63%)" stroke-width="1.5"></path><path d="M229.87 533.02L51.56 652.04" stroke="hsl(0, 100%, 63%)" stroke-width="1.5"></path><path d="M229.87 533.02L-65.53 557.81" stroke="hsl(0, 100%, 63%)" stroke-width="1.5"></path><path d="M249.25 697.14L249.25 697.14" stroke="hsl(0, 100%, 63%)" stroke-width="1.5"></path><path d="M249.25 697.14L51.56 652.04" stroke="hsl(0, 100%, 63%)" stroke-width="1.5"></path><path d="M249.25 697.14L398.95 490.36" stroke="hsl(0, 100%, 63%)" stroke-width="1.5"></path><path d="M249.25 697.14L505.77 700.52" stroke="hsl(0, 100%, 63%)" stroke-width="1.5"></path><path d="M249.25 697.14L543.59 526.48" stroke="hsl(0, 100%, 63%)" stroke-width="1.5"></path><path d="M505.77 700.52L505.77 700.52" stroke="hsl(0, 100%, 63%)" stroke-width="1.5"></path><path d="M505.77 700.52L543.59 526.48" stroke="hsl(0, 100%, 63%)" stroke-width="1.5"></path><path d="M505.77 700.52L710.64 664.03" stroke="hsl(0, 100%, 63%)" stroke-width="1.5"></path><path d="M505.77 700.52L398.95 490.36" stroke="hsl(0, 100%, 63%)" stroke-width="1.5"></path><path d="M505.77 700.52L682.91 515.54" stroke="hsl(0, 100%, 63%)" stroke-width="1.5"></path><path d="M1091.91 191.99L1091.91 191.99" stroke="hsl(0, 100%, 63%)" stroke-width="1.5"></path><path d="M1091.91 191.99L1268.06 223.17" stroke="hsl(0, 100%, 63%)" stroke-width="1.5"></path><path d="M1091.91 191.99L1291.66 85.07" stroke="hsl(0, 100%, 63%)" stroke-width="1.5"></path><path d="M1091.91 191.99L944.75 386.25" stroke="hsl(0, 100%, 63%)" stroke-width="1.5"></path><path d="M1091.91 191.99L1251.16 392.17" stroke="hsl(0, 100%, 63%)" stroke-width="1.5"></path><path d="M1091.91 191.99L1308.27 -44.71" stroke="hsl(0, 100%, 63%)" stroke-width="1.5"></path><path d="M1102.55 646.95L1102.55 646.95" stroke="hsl(0, 100%, 63%)" stroke-width="1.5"></path><path d="M1102.55 646.95L998.07 704.72" stroke="hsl(0, 100%, 63%)" stroke-width="1.5"></path><path d="M1102.55 646.95L1241.33 692.89" stroke="hsl(0, 100%, 63%)" stroke-width="1.5"></path><path d="M1102.55 646.95L978.76 526.72" stroke="hsl(0, 100%, 63%)" stroke-width="1.5"></path><path d="M1102.55 646.95L1308.96 506.02" stroke="hsl(0, 100%, 63%)" stroke-width="1.5"></path><path d="M1102.55 646.95L822.96 668.59" stroke="hsl(0, 100%, 63%)" stroke-width="1.5"></path><path d="M1456.57 80.68L1456.57 80.68" stroke="hsl(0, 100%, 63%)" stroke-width="1.5"></path><path d="M1456.57 80.68L1538.59 44.29" stroke="hsl(0, 100%, 63%)" stroke-width="1.5"></path><path d="M1456.57 80.68L1456.17 191.94" stroke="hsl(0, 100%, 63%)" stroke-width="1.5"></path><path d="M1456.57 80.68L1291.66 85.07" stroke="hsl(0, 100%, 63%)" stroke-width="1.5"></path><path d="M1456.57 80.68L1440.21 -89.5" stroke="hsl(0, 100%, 63%)" stroke-width="1.5"></path><path d="M1456.57 80.68L1308.27 -44.71" stroke="hsl(0, 100%, 63%)" stroke-width="1.5"></path><path d="M1456.57 80.68L1268.06 223.17" stroke="hsl(0, 100%, 63%)" stroke-width="1.5"></path><path d="M1456.17 191.94L1456.17 191.94" stroke="hsl(0, 100%, 63%)" stroke-width="1.5"></path><path d="M1456.17 191.94L1429.61 357.69" stroke="hsl(0, 100%, 63%)" stroke-width="1.5"></path><path d="M1456.17 191.94L1538.59 44.29" stroke="hsl(0, 100%, 63%)" stroke-width="1.5"></path><path d="M1456.17 191.94L1268.06 223.17" stroke="hsl(0, 100%, 63%)" stroke-width="1.5"></path><path d="M1456.17 191.94L1291.66 85.07" stroke="hsl(0, 100%, 63%)" stroke-width="1.5"></path><path d="M1456.17 191.94L1308.27 -44.71" stroke="hsl(0, 100%, 63%)" stroke-width="1.5"></path><path d="M1429.61 357.69L1429.61 357.69" stroke="hsl(0, 100%, 63%)" stroke-width="1.5"></path><path d="M1429.61 357.69L1251.16 392.17" stroke="hsl(0, 100%, 63%)" stroke-width="1.5"></path><path d="M1429.61 357.69L1428.45 547.01" stroke="hsl(0, 100%, 63%)" stroke-width="1.5"></path><path d="M1429.61 357.69L1308.96 506.02" stroke="hsl(0, 100%, 63%)" stroke-width="1.5"></path><path d="M1429.61 357.69L1268.06 223.17" stroke="hsl(0, 100%, 63%)" stroke-width="1.5"></path><path d="M1429.61 357.69L1606.5 558.93" stroke="hsl(0, 100%, 63%)" stroke-width="1.5"></path><path d="M1538.59 44.29L1538.59 44.29" stroke="hsl(0, 100%, 63%)" stroke-width="1.5"></path><path d="M1538.59 44.29L1440.21 -89.5" stroke="hsl(0, 100%, 63%)" stroke-width="1.5"></path><path d="M1538.59 44.29L1308.27 -44.71" stroke="hsl(0, 100%, 63%)" stroke-width="1.5"></path><path d="M1597.27 643.47L1597.27 643.47" stroke="hsl(0, 100%, 63%)" stroke-width="1.5"></path><path d="M1597.27 643.47L1606.5 558.93" stroke="hsl(0, 100%, 63%)" stroke-width="1.5"></path><path d="M1597.27 643.47L1452.9 647.35" stroke="hsl(0, 100%, 63%)" stroke-width="1.5"></path><path d="M1597.27 643.47L1428.45 547.01" stroke="hsl(0, 100%, 63%)" stroke-width="1.5"></path><path d="M1597.27 643.47L1308.96 506.02" stroke="hsl(0, 100%, 63%)" stroke-width="1.5"></path><path d="M1597.27 643.47L1429.61 357.69" stroke="hsl(0, 100%, 63%)" stroke-width="1.5"></path><path d="M51.56 652.04L51.56 652.04" stroke="hsl(0, 100%, 63%)" stroke-width="1.5"></path><path d="M51.56 652.04L398.95 490.36" stroke="hsl(0, 100%, 63%)" stroke-width="1.5"></path><path d="M51.56 652.04L505.77 700.52" stroke="hsl(0, 100%, 63%)" stroke-width="1.5"></path><path d="M398.95 490.36L398.95 490.36" stroke="hsl(0, 100%, 63%)" stroke-width="1.5"></path><path d="M398.95 490.36L543.59 526.48" stroke="hsl(0, 100%, 63%)" stroke-width="1.5"></path><path d="M543.59 526.48L543.59 526.48" stroke="hsl(0, 100%, 63%)" stroke-width="1.5"></path><path d="M543.59 526.48L682.91 515.54" stroke="hsl(0, 100%, 63%)" stroke-width="1.5"></path><path d="M682.91 515.54L682.91 515.54" stroke="hsl(0, 100%, 63%)" stroke-width="1.5"></path><path d="M682.91 515.54L814.74 513.1" stroke="hsl(0, 100%, 63%)" stroke-width="1.5"></path><path d="M710.64 664.03L710.64 664.03" stroke="hsl(0, 100%, 63%)" stroke-width="1.5"></path><path d="M710.64 664.03L822.96 668.59" stroke="hsl(0, 100%, 63%)" stroke-width="1.5"></path><path d="M710.64 664.03L682.91 515.54" stroke="hsl(0, 100%, 63%)" stroke-width="1.5"></path><path d="M710.64 664.03L814.74 513.1" stroke="hsl(0, 100%, 63%)" stroke-width="1.5"></path><path d="M710.64 664.03L543.59 526.48" stroke="hsl(0, 100%, 63%)" stroke-width="1.5"></path><path d="M791.89 355.05L791.89 355.05" stroke="hsl(0, 100%, 63%)" stroke-width="1.5"></path><path d="M791.89 355.05L944.75 386.25" stroke="hsl(0, 100%, 63%)" stroke-width="1.5"></path><path d="M791.89 355.05L814.74 513.1" stroke="hsl(0, 100%, 63%)" stroke-width="1.5"></path><path d="M791.89 355.05L682.91 515.54" stroke="hsl(0, 100%, 63%)" stroke-width="1.5"></path><path d="M791.89 355.05L978.76 526.72" stroke="hsl(0, 100%, 63%)" stroke-width="1.5"></path><path d="M791.89 355.05L543.59 526.48" stroke="hsl(0, 100%, 63%)" stroke-width="1.5"></path><path d="M791.89 355.05L822.96 668.59" stroke="hsl(0, 100%, 63%)" stroke-width="1.5"></path><path d="M814.74 513.1L814.74 513.1" stroke="hsl(0, 100%, 63%)" stroke-width="1.5"></path><path d="M814.74 513.1L822.96 668.59" stroke="hsl(0, 100%, 63%)" stroke-width="1.5"></path><path d="M822.96 668.59L822.96 668.59" stroke="hsl(0, 100%, 63%)" stroke-width="1.5"></path><path d="M944.75 386.25L944.75 386.25" stroke="hsl(0, 100%, 63%)" stroke-width="1.5"></path><path d="M944.75 386.25L978.76 526.72" stroke="hsl(0, 100%, 63%)" stroke-width="1.5"></path><path d="M978.76 526.72L978.76 526.72" stroke="hsl(0, 100%, 63%)" stroke-width="1.5"></path><path d="M978.76 526.72L814.74 513.1" stroke="hsl(0, 100%, 63%)" stroke-width="1.5"></path><path d="M978.76 526.72L998.07 704.72" stroke="hsl(0, 100%, 63%)" stroke-width="1.5"></path><path d="M978.76 526.72L822.96 668.59" stroke="hsl(0, 100%, 63%)" stroke-width="1.5"></path><path d="M998.07 704.72L998.07 704.72" stroke="hsl(0, 100%, 63%)" stroke-width="1.5"></path><path d="M1308.27 -44.71L1308.27 -44.71" stroke="hsl(0, 100%, 63%)" stroke-width="1.5"></path><path d="M1308.27 -44.71L1291.66 85.07" stroke="hsl(0, 100%, 63%)" stroke-width="1.5"></path><path d="M1308.27 -44.71L1440.21 -89.5" stroke="hsl(0, 100%, 63%)" stroke-width="1.5"></path><path d="M1291.66 85.07L1291.66 85.07" stroke="hsl(0, 100%, 63%)" stroke-width="1.5"></path><path d="M1291.66 85.07L1268.06 223.17" stroke="hsl(0, 100%, 63%)" stroke-width="1.5"></path><path d="M1268.06 223.17L1268.06 223.17" stroke="hsl(0, 100%, 63%)" stroke-width="1.5"></path><path d="M1268.06 223.17L1251.16 392.17" stroke="hsl(0, 100%, 63%)" stroke-width="1.5"></path><path d="M1251.16 392.17L1251.16 392.17" stroke="hsl(0, 100%, 63%)" stroke-width="1.5"></path><path d="M1251.16 392.17L1308.96 506.02" stroke="hsl(0, 100%, 63%)" stroke-width="1.5"></path><path d="M1251.16 392.17L1428.45 547.01" stroke="hsl(0, 100%, 63%)" stroke-width="1.5"></path><path d="M1251.16 392.17L1456.17 191.94" stroke="hsl(0, 100%, 63%)" stroke-width="1.5"></path><path d="M1308.96 506.02L1308.96 506.02" stroke="hsl(0, 100%, 63%)" stroke-width="1.5"></path><path d="M1308.96 506.02L1428.45 547.01" stroke="hsl(0, 100%, 63%)" stroke-width="1.5"></path><path d="M1308.96 506.02L1241.33 692.89" stroke="hsl(0, 100%, 63%)" stroke-width="1.5"></path><path d="M1308.96 506.02L1452.9 647.35" stroke="hsl(0, 100%, 63%)" stroke-width="1.5"></path><path d="M1241.33 692.89L1241.33 692.89" stroke="hsl(0, 100%, 63%)" stroke-width="1.5"></path><path d="M1241.33 692.89L1452.9 647.35" stroke="hsl(0, 100%, 63%)" stroke-width="1.5"></path><path d="M1241.33 692.89L1428.45 547.01" stroke="hsl(0, 100%, 63%)" stroke-width="1.5"></path><path d="M1440.21 -89.5L1440.21 -89.5" stroke="hsl(0, 100%, 63%)" stroke-width="1.5"></path><path d="M1440.21 -89.5L1291.66 85.07" stroke="hsl(0, 100%, 63%)" stroke-width="1.5"></path><path d="M1440.21 -89.5L1456.17 191.94" stroke="hsl(0, 100%, 63%)" stroke-width="1.5"></path><path d="M1440.21 -89.5L1268.06 223.17" stroke="hsl(0, 100%, 63%)" stroke-width="1.5"></path><path d="M1428.45 547.01L1428.45 547.01" stroke="hsl(0, 100%, 63%)" stroke-width="1.5"></path><path d="M1428.45 547.01L1452.9 647.35" stroke="hsl(0, 100%, 63%)" stroke-width="1.5"></path><path d="M1428.45 547.01L1606.5 558.93" stroke="hsl(0, 100%, 63%)" stroke-width="1.5"></path><path d="M1452.9 647.35L1452.9 647.35" stroke="hsl(0, 100%, 63%)" stroke-width="1.5"></path><path d="M1452.9 647.35L1606.5 558.93" stroke="hsl(0, 100%, 63%)" stroke-width="1.5"></path><path d="M1606.5 558.93L1606.5 558.93" stroke="hsl(0, 100%, 63%)" stroke-width="1.5"></path><circle r="25" cx="-65.53" cy="557.81" fill="url(&quot;#SvgjsRadialGradient1011&quot;)"></circle><circle r="25" cx="-38.66" cy="638.89" fill="url(&quot;#SvgjsRadialGradient1011&quot;)"></circle><circle r="25" cx="229.87" cy="533.02" fill="url(&quot;#SvgjsRadialGradient1011&quot;)"></circle><circle r="25" cx="249.25" cy="697.14" fill="url(&quot;#SvgjsRadialGradient1011&quot;)"></circle><circle r="25" cx="505.77" cy="700.52" fill="url(&quot;#SvgjsRadialGradient1011&quot;)"></circle><circle r="25" cx="1091.91" cy="191.99" fill="url(&quot;#SvgjsRadialGradient1011&quot;)"></circle><circle r="25" cx="1102.55" cy="646.95" fill="url(&quot;#SvgjsRadialGradient1011&quot;)"></circle><circle r="25" cx="1456.57" cy="80.68" fill="url(&quot;#SvgjsRadialGradient1011&quot;)"></circle><circle r="25" cx="1456.17" cy="191.94" fill="url(&quot;#SvgjsRadialGradient1011&quot;)"></circle><circle r="25" cx="1429.61" cy="357.69" fill="url(&quot;#SvgjsRadialGradient1011&quot;)"></circle><circle r="25" cx="1538.59" cy="44.29" fill="url(&quot;#SvgjsRadialGradient1011&quot;)"></circle><circle r="25" cx="1597.27" cy="643.47" fill="url(&quot;#SvgjsRadialGradient1011&quot;)"></circle><circle r="5" cx="51.56" cy="652.04" fill="#fb8080"></circle><circle r="5" cx="398.95" cy="490.36" fill="#fb8080"></circle><circle r="5" cx="543.59" cy="526.48" fill="#fb8080"></circle><circle r="5" cx="682.91" cy="515.54" fill="#fb8080"></circle><circle r="5" cx="710.64" cy="664.03" fill="#fb8080"></circle><circle r="5" cx="791.89" cy="355.05" fill="#fb8080"></circle><circle r="5" cx="814.74" cy="513.1" fill="#fb8080"></circle><circle r="5" cx="822.96" cy="668.59" fill="#fb8080"></circle><circle r="5" cx="944.75" cy="386.25" fill="#fb8080"></circle><circle r="5" cx="978.76" cy="526.72" fill="#fb8080"></circle><circle r="5" cx="998.07" cy="704.72" fill="#fb8080"></circle><circle r="5" cx="1308.27" cy="-44.71" fill="#fb8080"></circle><circle r="5" cx="1291.66" cy="85.07" fill="#fb8080"></circle><circle r="5" cx="1268.06" cy="223.17" fill="#fb8080"></circle><circle r="5" cx="1251.16" cy="392.17" fill="#fb8080"></circle><circle r="5" cx="1308.96" cy="506.02" fill="#fb8080"></circle><circle r="5" cx="1241.33" cy="692.89" fill="#fb8080"></circle><circle r="5" cx="1440.21" cy="-89.5" fill="#fb8080"></circle><circle r="5" cx="1428.45" cy="547.01" fill="#fb8080"></circle><circle r="5" cx="1452.9" cy="647.35" fill="#fb8080"></circle><circle r="5" cx="1606.5" cy="558.93" fill="#fb8080"></circle></g><defs><mask id="SvgjsMask1010"><rect width="1440" height="560" fill="#ffffff"></rect></mask><radialGradient id="SvgjsRadialGradient1011"><stop stop-color="#ffffff" offset="0.1"></stop><stop stop-color="rgba(247, 0, 0, 1)" offset="0.2"></stop><stop stop-color="rgba(247, 0, 0, 0)" offset="1"></stop></radialGradient></defs></svg>